ffmpeg started on 2016-11-29 at 15:46:33
Report written to "Output/x264/results/ffmpeg/old_town_cross_2160p50veryfast3000k.log"
Command line:
Tools/ffmpeg/ffmpeg -benchmark -y -i Input/y4m/old_town_cross_2160p50.y4m -c:v libx264 -preset veryfast -b:v 3000k -an Output/x264/encoded/old_town_cross_2160p50veryfast3000k.mkv
ffmpeg version N-82227-gdb23fde Copyright (c) 2000-2016 the FFmpeg developers
  built with gcc 5.4.0 (Ubuntu 5.4.0-6ubuntu1~16.04.2) 20160609
  configuration: --prefix=/home/jaroslav/ffmpeg_build --pkg-config-flags=--static --extra-cflags=-I/home/jaroslav/ffmpeg_build/include --extra-ldflags=-L/home/jaroslav/ffmpeg_build/lib --bindir=/home/jaroslav/bin --enable-gpl --enable-libass --enable-libfdk-aac --enable-libfreetype --enable-libmp3lame --enable-libopus --enable-libtheora --enable-libvorbis --enable-libvpx --enable-libx264 --enable-libx265 --enable-nvenc --enable-libmfx --enable-libxvid --enable-libgsm --enable-libopencore-amrnb --enable-version3 --enable-nonfree
  libavutil      55. 35.100 / 55. 35.100
  libavcodec     57. 66.101 / 57. 66.101
  libavformat    57. 57.100 / 57. 57.100
  libavdevice    57.  2.100 / 57.  2.100
  libavfilter     6. 66.100 /  6. 66.100
  libswscale      4.  3.100 /  4.  3.100
  libswresample   2.  4.100 /  2.  4.100
  libpostproc    54.  2.100 / 54.  2.100
Input #0, yuv4mpegpipe, from 'Input/y4m/old_town_cross_2160p50.y4m':
  Duration: 00:00:10.00, start: 0.000000, bitrate: 4976642 kb/s
    Stream #0:0: Video: rawvideo (I420 / 0x30323449), yuv420p(progressive), 3840x2160, SAR 1:1 DAR 16:9, 50 fps, 50 tbr, 50 tbn, 50 tbc
[libx264 @ 0x3ac1120] using SAR=1/1
[libx264 @ 0x3ac1120] using cpu capabilities: MMX2 SSE2Fast SSSE3 SSE4.2 AVX FMA3 AVX2 LZCNT BMI2
[libx264 @ 0x3ac1120] profile High, level 5.2
[libx264 @ 0x3ac1120] 264 - core 148 - H.264/MPEG-4 AVC codec - Copyleft 2003-2016 - http://www.videolan.org/x264.html - options: cabac=1 ref=1 deblock=1:0:0 analyse=0x3:0x113 me=hex subme=2 psy=1 psy_rd=1.00:0.00 mixed_ref=0 me_range=16 chroma_me=1 trellis=0 8x8dct=1 cqm=0 deadzone=21,11 fast_pskip=1 chroma_qp_offset=0 threads=6 lookahead_threads=2 sliced_threads=0 nr=0 decimate=1 interlaced=0 bluray_compat=0 constrained_intra=0 bframes=3 b_pyramid=2 b_adapt=1 b_bias=0 direct=1 weightb=1 open_gop=0 weightp=1 keyint=250 keyint_min=25 scenecut=40 intra_refresh=0 rc_lookahead=10 rc=abr mbtree=1 bitrate=3000 ratetol=1.0 qcomp=0.60 qpmin=0 qpmax=69 qpstep=4 ip_ratio=1.40 aq=1:1.00
Output #0, matroska, to 'Output/x264/encoded/old_town_cross_2160p50veryfast3000k.mkv':
  Metadata:
    encoder         : Lavf57.57.100
    Stream #0:0: Video: h264 (libx264) (H264 / 0x34363248), yuv420p, 3840x2160 [SAR 1:1 DAR 16:9], q=-1--1, 3000 kb/s, 50 fps, 1k tbn, 50 tbc
    Metadata:
      encoder         : Lavc57.66.101 libx264
    Side data:
      cpb: bitrate max/min/avg: 0/0/3000000 buffer size: 0 vbv_delay: -1
Stream mapping:
  Stream #0:0 -> #0:0 (rawvideo (native) -> h264 (libx264))
Press [q] to stop, [?] for help
frame=   22 fps=0.0 q=44.0 size=       1kB time=-00:00:00.01 bitrate=N/A speed=N/A    frame=   38 fps= 35 q=43.0 size=       1kB time=00:00:00.30 bitrate=  19.5kbits/s speed=0.276x    frame=   54 fps= 33 q=41.0 size=       1kB time=00:00:00.62 bitrate=   9.4kbits/s speed=0.382x    frame=   70 fps= 32 q=39.0 size=       1kB time=00:00:00.94 bitrate=   6.2kbits/s speed=0.431x    frame=   86 fps= 31 q=39.0 size=       1kB time=00:00:01.26 bitrate=   4.7kbits/s speed=0.46x    frame=  102 fps= 31 q=39.0 size=       1kB time=00:00:01.58 bitrate=   3.7kbits/s speed=0.481x    frame=  118 fps= 31 q=38.0 size=       1kB time=00:00:01.90 bitrate=   3.1kbits/s speed=0.498x    frame=  134 fps= 31 q=38.0 size=       1kB time=00:00:02.22 bitrate=   2.6kbits/s speed=0.511x    frame=  150 fps= 31 q=38.0 size=       1kB time=00:00:02.54 bitrate=   2.3kbits/s speed=0.519x    frame=  166 fps= 31 q=38.0 size=       1kB time=00:00:02.86 bitrate=   2.0kbits/s speed=0.527x    frame=  182 fps= 31 q=38.0 size=       1kB time=00:00:03.18 bitrate=   1.8kbits/s speed=0.534x    frame=  198 fps= 30 q=38.0 size=       1kB time=00:00:03.50 bitrate=   1.7kbits/s speed=0.537x    frame=  214 fps= 30 q=38.0 size=       1kB time=00:00:03.82 bitrate=   1.5kbits/s speed=0.541x    frame=  230 fps= 30 q=38.0 size=       1kB time=00:00:04.14 bitrate=   1.4kbits/s speed=0.542x    frame=  236 fps= 29 q=38.0 size=       1kB time=00:00:04.26 bitrate=   1.4kbits/s speed=0.521x    frame=  244 fps= 28 q=38.0 size=       1kB time=00:00:04.42 bitrate=   1.3kbits/s speed=0.509x    frame=  252 fps= 27 q=38.0 size=       1kB time=00:00:04.58 bitrate=   1.3kbits/s speed=0.498x    frame=  260 fps= 27 q=38.0 size=       1kB time=00:00:04.74 bitrate=   1.2kbits/s speed=0.489x    frame=  271 fps= 26 q=39.0 size=    1688kB time=00:00:04.96 bitrate=2786.8kbits/s speed=0.484x    frame=  287 fps= 27 q=39.0 size=    1688kB time=00:00:05.28 bitrate=2617.9kbits/s speed=0.491x    frame=  303 fps= 27 q=39.0 size=    1688kB time=00:00:05.60 bitrate=2468.4kbits/s speed=0.494x    frame=  319 fps= 27 q=39.0 size=    1688kB time=00:00:05.92 bitrate=2335.0kbits/s speed=0.499x    frame=  335 fps= 27 q=38.0 size=    1688kB time=00:00:06.24 bitrate=2215.3kbits/s speed=0.503x    frame=  351 fps= 27 q=38.0 size=    1688kB time=00:00:06.56 bitrate=2107.2kbits/s speed=0.508x    frame=  367 fps= 27 q=38.0 size=    1688kB time=00:00:06.88 bitrate=2009.2kbits/s speed=0.511x    frame=  383 fps= 27 q=38.0 size=    1688kB time=00:00:07.20 bitrate=1919.9kbits/s speed=0.514x    frame=  399 fps= 27 q=38.0 size=    1688kB time=00:00:07.52 bitrate=1838.2kbits/s speed=0.517x    frame=  415 fps= 27 q=38.0 size=    1688kB time=00:00:07.84 bitrate=1763.2kbits/s speed=0.519x    frame=  431 fps= 28 q=38.0 size=    1688kB time=00:00:08.16 bitrate=1694.1kbits/s speed=0.521x    frame=  447 fps= 28 q=38.0 size=    1688kB time=00:00:08.48 bitrate=1630.2kbits/s speed=0.523x    frame=  463 fps= 28 q=38.0 size=    1688kB time=00:00:08.80 bitrate=1570.9kbits/s speed=0.526x    frame=  473 fps= 27 q=38.0 size=    1688kB time=00:00:09.00 bitrate=1536.0kbits/s speed=0.522x    frame=  480 fps= 27 q=39.0 size=    1688kB time=00:00:09.14 bitrate=1512.5kbits/s speed=0.514x    frame=  488 fps= 27 q=39.0 size=    1688kB time=00:00:09.30 bitrate=1486.4kbits/s speed=0.508x    frame=  496 fps= 26 q=39.0 size=    1688kB time=00:00:09.46 bitrate=1461.3kbits/s speed=0.503x    frame=  500 fps= 25 q=-1.0 Lsize=    3729kB time=00:00:09.94 bitrate=3072.6kbits/s speed=0.506x    
video:3724kB audio:0kB subtitle:0kB other streams:0kB global headers:0kB muxing overhead: 0.115139%
bench: utime=57.868s
bench: maxrss=1083780kB
[libx264 @ 0x3ac1120] frame I:3     Avg QP:36.32  size:111241
[libx264 @ 0x3ac1120] frame P:183   Avg QP:36.84  size: 12425
[libx264 @ 0x3ac1120] frame B:314   Avg QP:38.51  size:  3839
[libx264 @ 0x3ac1120] consecutive B-frames: 16.0%  0.8%  0.0% 83.2%
[libx264 @ 0x3ac1120] mb I  I16..4: 44.2% 52.9%  2.8%
[libx264 @ 0x3ac1120] mb P  I16..4:  1.5%  1.0%  0.0%  P16..4: 11.2%  2.5%  0.4%  0.0%  0.0%    skip:83.3%
[libx264 @ 0x3ac1120] mb B  I16..4:  0.1%  0.1%  0.0%  B16..8:  5.4%  0.3%  0.0%  direct: 0.7%  skip:93.4%  L0:36.2% L1:63.4% BI: 0.5%
[libx264 @ 0x3ac1120] final ratefactor: 30.87
[libx264 @ 0x3ac1120] 8x8 transform intra:44.9% inter:52.8%
[libx264 @ 0x3ac1120] coded y,uvDC,uvAC intra: 22.0% 20.6% 3.3% inter: 0.4% 0.9% 0.0%
[libx264 @ 0x3ac1120] i16 v,h,dc,p: 46% 41% 10%  4%
[libx264 @ 0x3ac1120] i8 v,h,dc,ddl,ddr,vr,hd,vl,hu: 15% 25% 40%  3%  3%  3%  5%  2%  5%
[libx264 @ 0x3ac1120] i4 v,h,dc,ddl,ddr,vr,hd,vl,hu: 21% 31%  9%  6%  6%  6%  9%  5%  6%
[libx264 @ 0x3ac1120] i8c dc,h,v,p: 77% 12% 10%  1%
[libx264 @ 0x3ac1120] Weighted P-Frames: Y:0.5% UV:0.0%
[libx264 @ 0x3ac1120] kb/s:3050.37
